<!--?xml version="1.0" encoding="utf-8"?-->
<!-- Generator: Adobe Illustrator 18.1.1, SVG Export Plug-In . SVG Version: 6.00 Build 0)  -->

<svg version="1.1" id="_x32_" xmlns="http://www.w3.org/2000/svg" xmlns:xlink="http://www.w3.org/1999/xlink" x="0px" y="0px" viewBox="0 0 512 512" style="width: 64px; height: 64px; opacity: 1;" xml:space="preserve">
<style type="text/css">
	.st0{fill:#4B4B4B;}
</style>
<g>
	<path class="st0" d="M458.265,136.914l-65.048-36.854V59.676c0-5.784-4.052-10.765-9.713-11.934L154.816,0.254
		c-3.582-0.742-7.334,0.164-10.173,2.478c-2.832,2.307-4.492,5.796-4.492,9.457v42.697l-89.337,96.211
		c-2.089,2.247-3.256,5.231-3.256,8.294v272.033c0,5.448,3.614,10.232,8.856,11.731l240.554,68.38
		c3.221,0.92,6.677,0.466,9.558-1.242l146.9-87.273c2.79-0.276,5.458-1.466,7.446-3.457c2.267-2.267,3.572-5.408,3.572-8.616
		V147.521C464.443,143.132,462.087,139.083,458.265,136.914z M431.948,150.032L319.13,201.148l59.934-81.084L431.948,150.032z
		 M164.529,27.172l204.31,42.421v28.811l-204.31-42.428V27.172z M294.204,485.404L71.939,422.216V168.538l222.265,52.653V485.404z
		 M297.785,209.513l-219.64-52.028l83.127-89.522c0.052-0.053,0.089-0.125,0.138-0.177l208.122,43.216
		c0.109,0.322,0.256,0.625,0.391,0.934L297.785,209.513z M440.061,402.599l-133.667,79.414V220.298l133.667-60.56V402.599z" style="fill: rgb(254, 254, 254);"></path>
	<path class="st0" d="M94.158,323.961c2.724,0.512,4.82-0.822,4.952-3.851l1.239-30.546l0.44,0.086l10.058,25.157
		c1.466,3.661,2.987,4.936,5.537,5.415c2.474,0.466,4.094-0.223,5.819-3.279l11.859-21.036l0.427,0.085l-1.239,30.54
		c-0.131,3.023,1.824,5.126,4.644,5.651c2.727,0.513,4.82-0.828,4.951-3.857l1.857-45.924c0.158-3.602-1.952-6.23-5.474-6.888
		c-3.082-0.578-4.548,0.716-6.272,3.851l-15.691,28.154l-0.358-0.072l-13.534-33.642c-1.525-3.752-2.869-5.573-5.954-6.151
		c-3.522-0.658-5.892,1.117-6.046,4.725l-1.857,45.924C89.384,321.332,91.335,323.435,94.158,323.961z" style="fill: rgb(254, 254, 254);"></path>
	<path class="st0" d="M161.013,336.526c3,0.565,5.284-0.985,5.415-4.094l1.883-46.337c0.128-3.108-2.001-5.494-5.001-6.053
		c-2.987-0.565-5.26,0.993-5.392,4.094l-1.882,46.344C155.906,333.588,158.023,335.968,161.013,336.526z" style="fill: rgb(254, 254, 254);"></path>
	<path class="st0" d="M184.618,340.555l29.297,5.514c3.273,0.611,5.37-0.815,5.474-3.351c0.096-2.537-1.857-4.719-5.129-5.33
		l-23.583-4.436c-0.346-0.066-0.513-0.263-0.5-0.592l1.702-41.836c0.131-3.115-2.001-5.487-4.988-6.052
		c-3-0.559-5.274,0.986-5.405,4.101l-1.88,46.173C179.486,337.696,181.441,339.957,184.618,340.555z" style="fill: rgb(254, 254, 254);"></path>
	<path class="st0" d="M232.534,349.972c3,0.565,5.274-0.986,5.406-4.101l0.427-10.639l9.868-8.951l13.643,26.327
		c1.072,2.018,2.704,3.391,4.81,3.792c2.987,0.558,5.096-1.111,5.202-3.641c0.036-0.907-0.263-2.116-0.845-3.22l-15.654-29.422
		l14.619-12.592c0.831-0.75,1.308-1.735,1.356-2.964c0.096-2.458-1.941-4.574-4.488-5.047c-1.597-0.302-3.118,0.152-4.311,1.249
		l-23.665,21.372l0.916-22.594c0.132-3.109-1.988-5.494-4.988-6.053c-3-0.564-5.261,0.986-5.392,4.094l-1.88,46.338
		C227.427,347.035,229.534,349.407,232.534,349.972z" style="fill: rgb(254, 254, 254);"></path>
</g>
</svg>
